<?xml version="1.0" encoding="utf-8"?>
<!-- Generator: Adobe Illustrator 26.5.0, SVG Export Plug-In . SVG Version: 6.00 Build 0)  -->
<svg version="1.1" id="Layer_1" xmlns="http://www.w3.org/2000/svg" xmlns:xlink="http://www.w3.org/1999/xlink" x="0px" y="0px"
	 viewBox="0 0 1729 215.6" style="enable-background:new 0 0 1729 215.6;" xml:space="preserve">
<style type="text/css">
	.st0{clip-path:url(#SVGID_00000036970061331015730980000018100562345752296609_);}
	.st1{fill:#DFD3E4;}
	.st2{fill:#C0A6CB;}
	.st3{fill:#5C2682;}
</style>
<g>
	<g>
		<defs>
			<rect id="SVGID_1_" y="-14.5" width="1729.3" height="447"/>
		</defs>
		<clipPath id="SVGID_00000120520631761609170620000003353260386803809725_">
			<use xlink:href="#SVGID_1_"  style="overflow:visible;"/>
		</clipPath>
		<g style="clip-path:url(#SVGID_00000120520631761609170620000003353260386803809725_);">
			<path class="st1" d="M0,58.7l41.3,0.4c41.3,0.4,123.9,1.3,206.2,1.3c82.5,0,164.3-0.9,246.7-0.2c82.3,0.8,164.8,3,247.1-9.4
				C823.7,38.5,905.6,11.6,988,5.6c82.3-6,164.8,9,247.1,14.5c82.5,5.5,164.3,1.6,246.7,5.5c82.3,4,164.8,15.9,206.2,21.9l41.3,6
				v142h-41.3c-41.3,0-123.9,0-206.2,0c-82.5,0-164.3,0-246.7,0c-82.3,0-164.8,0-247.1,0c-82.5,0-164.3,0-246.7,0
				c-82.3,0-164.8,0-247.1,0c-82.5,0-164.3,0-246.7,0c-82.3,0-164.8,0-206.2,0H0V58.7z"/>
			<path class="st2" d="M0,71.3l41.3,4.6C82.7,80.4,165.2,89.7,247.5,93c82.5,3.4,164.3,0.8,246.7,3.7c82.3,2.8,164.8,11,247.1,7.1
				c82.5-4,164.3-20.1,246.7-20.9c82.3-0.7,164.8,13.9,247.1,17.1c82.5,3.2,164.3-5,246.7-9.1c82.3-4.1,164.8-4.1,206.2-4.1h41.3
				V221h-41.3c-41.3,0-123.9,0-206.2,0c-82.5,0-164.3,0-246.7,0c-82.3,0-164.8,0-247.1,0c-82.5,0-164.3,0-246.7,0
				c-82.3,0-164.8,0-247.1,0c-82.5,0-164.3,0-246.7,0c-82.3,0-164.8,0-206.2,0H0V71.3z"/>
			<path class="st3" d="M0,149.7l41.3-8c41.3-8.1,123.9-24,206.2-21.9c82.5,2.2,164.3,22.7,246.7,31.8c82.3,9.1,164.8,6.8,247.1-3.6
				c82.5-10.4,164.3-29.3,246.7-27.7c82.3,1.7,164.8,23.9,247.1,31.3c82.5,7.5,164.3,0.2,246.7,0c82.3-0.3,164.8,6.3,206.2,9.6
				l41.3,3.3V221h-41.3c-41.3,0-123.9,0-206.2,0c-82.5,0-164.3,0-246.7,0c-82.3,0-164.8,0-247.1,0c-82.5,0-164.3,0-246.7,0
				c-82.3,0-164.8,0-247.1,0c-82.5,0-164.3,0-246.7,0c-82.3,0-164.8,0-206.2,0H0V149.7z"/>
		</g>
	</g>
</g>
</svg>
